HIERARCHY
ROOT Hips
{
  OFFSET 263.056 91.6644 -274.608
  CHANNELS 6 Xposition Yposition Zposition Zrotation Xrotation Yrotation
  JOINT LeftUpLeg
  {
    OFFSET 8.64259 1.95398 -2.38835
    CHANNELS 3 Zrotation Xrotation Yrotation
    JOINT LeftLeg
    {
      OFFSET 43.7702 0 0
      CHANNELS 3 Zrotation Xrotation Yrotation
      JOINT LeftFoot
      {
        OFFSET 40.6238 0 0
        CHANNELS 3 Zrotation Xrotation Yrotation
        JOINT LeftToeBase
        {
          OFFSET 12.7242 0 0
          CHANNELS 3 Zrotation Xrotation Yrotation
          End Site
          {
            OFFSET 0 0 0
          }
        }
      }
    }
  }
  JOINT RightUpLeg
  {
    OFFSET -8.2249 1.95398 -2.59336
    CHANNELS 3 Zrotation Xrotation Yrotation
    JOINT RightLeg
    {
      OFFSET 43.5653 0 0
      CHANNELS 3 Zrotation Xrotation Yrotation
      JOINT RightFoot
      {
        OFFSET 40.6238 0 0
        CHANNELS 3 Zrotation Xrotation Yrotation
        JOINT RightToeBase
        {
          OFFSET 12.7242 0 0
          CHANNELS 3 Zrotation Xrotation Yrotation
          End Site
          {
            OFFSET 0 0 0
          }
        }
      }
    }
  }
  JOINT Spine
  {
    OFFSET 0.165834 0.87714 6.61349
    CHANNELS 3 Zrotation Xrotation Yrotation
    JOINT Spine1
    {
      OFFSET 7.38963 1.71661e-005 0
      CHANNELS 3 Zrotation Xrotation Yrotation
      JOINT Spine2
      {
        OFFSET 11.9445 1.14441e-005 0
        CHANNELS 3 Zrotation Xrotation Yrotation
        JOINT Spine3
        {
          OFFSET 14.7254 4.19617e-005 0
          CHANNELS 3 Zrotation Xrotation Yrotation
          JOINT Spine4
          {
            OFFSET 10.9679 0 0
            CHANNELS 3 Zrotation Xrotation Yrotation
            JOINT RightShoulder
            {
              OFFSET 2.46616 -1.6653 3.69651
              CHANNELS 3 Zrotation Xrotation Yrotation
              JOINT RightArm
              {
                OFFSET 13.0012 0 0
                CHANNELS 3 Zrotation Xrotation Yrotation
                JOINT RightForeArm
                {
                  OFFSET 28.7848 1.52588e-005 0
                  CHANNELS 3 Zrotation Xrotation Yrotation
                  JOINT RightHand
                  {
                    OFFSET 26.5688 1.52588e-005 0
                    CHANNELS 3 Zrotation Xrotation Yrotation
                    End Site
                    {
                      OFFSET 0 0 0
                    }
                  }
                }
              }
            }
            JOINT LeftShoulder
            {
              OFFSET 2.38034 -1.29275 -3.7523
              CHANNELS 3 Zrotation Xrotation Yrotation
              JOINT LeftArm
              {
                OFFSET 16.3182 6.10352e-005 0
                CHANNELS 3 Zrotation Xrotation Yrotation
                JOINT LeftForeArm
                {
                  OFFSET 27.0901 0 0
                  CHANNELS 3 Zrotation Xrotation Yrotation
                  JOINT LeftHand
                  {
                    OFFSET 24.5451 1.52588e-005 0
                    CHANNELS 3 Zrotation Xrotation Yrotation
                    End Site
                    {
                      OFFSET 0 0 0
                    }
                  }
                }
              }
            }
            JOINT Neck
            {
              OFFSET 5.0226 -0.0266342 0
              CHANNELS 3 Zrotation Xrotation Yrotation
              JOINT Head
              {
                OFFSET 6.69364 2.86102e-005 0
                CHANNELS 3 Zrotation Xrotation Yrotation
                End Site
                {
                  OFFSET 0 0 0
                }
              }
            }
          }
        }
      }
    }
  }
}
MOTION
Frames:	15
Frame Time:	0.0416667
52.5497 92.069 -0.625705 -78.339 39.1025 -101.412 -172.693 10.9544 88.7891 -37.5904 21.2051 -1.97383 56.2813 0.419347 7.50146 55.9448 33.8013 9.81045 177.649 1.73743 90.0812 -21.5451 9.10553 -2.7383 85.0085 -8.11864 -3.15832 50.1555 1.71663 3.1918 0.530224 7.06761 -89.4813 12.7333 1.30103 0.882556 1.06278 1.33861 0.824427 -21.4732 0.975652 1.23276 -1.46059 0.975667 1.23276 81.2681 -52.0162 -113.262 13.7944 -21.7356 1.20282 -19.9732 3.75266 -88.4231 -30.6411 -1.50445 1.11638 -99.7257 -43.3789 61.8298 -30.4958 2.42036 10.1223 5.90949 2.52978 -42.0467 13.5403 0.917316 2.83176 10.8392 -3.60391 4.92098 2.55751 -4.73357 -1.61311 
51.7284 92.1649 0.317456 -78.1483 37.039 -101.147 -171.889 7.24159 88.7252 -30.8918 20.8912 -2.50276 59.2617 3.8412 9.49676 57.6248 33.7602 5.41903 177.242 1.07172 89.4335 -20.1179 6.99276 -2.51698 84.2552 -8.02096 -3.16786 52.9448 1.82689 2.2349 0.49264 6.96415 -89.4999 12.9407 1.21808 0.852386 1.2701 1.25439 0.79795 -21.2656 0.905606 1.17905 -1.25299 0.905576 1.17904 81.7396 -51.4376 -112.785 16.0559 -19.9053 3.52785 -19.7077 2.43014 -87.8271 -30.7273 -1.36782 0.603502 -100.102 -43.7447 61.4021 -28.2376 1.5856 7.22329 5.98851 1.33817 -46.5897 16.7366 1.06081 2.45784 10.8246 -4.40834 4.93764 2.74652 -5.52761 -1.73209 
50.7908 92.0776 1.0781 -78.3008 35.7645 -100.706 -171.087 5.4642 88.7829 -27.9721 22.0388 -3.18672 60.6616 6.06916 12.1423 58.395 33.1104 2.07058 177.281 0.335088 89.1549 -19.6653 5.2936 -3.0001 83.6735 -8.12886 -3.23844 54.1481 2.15961 3.63135 0.470814 6.91617 -89.5165 13.037 1.16699 0.824197 1.36639 1.20213 0.772031 -21.1693 0.865353 1.13682 -1.15661 0.865356 1.13681 80.9942 -50.9793 -114.047 17.769 -18.3405 5.86084 -20.0138 2.82642 -86.748 -30.5314 -1.61731 1.62817 -101.486 -44.1285 59.4503 -26.1416 -0.382865 6.31691 8.80603 2.26565 -53.1792 16.159 1.04622 2.59499 10.907 -4.90566 4.78352 2.4019 -5.95843 -1.4065 
49.5137 91.7535 1.7393 -79.0637 33.6624 -100.159 -171.843 5.00544 88.0006 -28.6223 22.0025 -2.70062 60.7502 6.34666 12.0744 59.3535 33.6916 1.07072 177.311 0.370049 88.8021 -22.0535 4.09508 -3.72601 83.2925 -8.00688 -3.21302 58.1998 2.59508 3.92642 0.321522 6.99157 -89.5267 12.8869 0.865107 0.841834 1.21601 0.901312 0.80294 -21.3181 0.572122 1.0629 -1.30547 0.572128 1.0629 81.258 -50.9127 -113.684 18.836 -17.3216 6.69106 -19.5063 1.49115 -84.5216 -30.1495 -1.5703 1.50839 -103.386 -44.5092 56.752 -23.9996 -1.53852 5.2522 10.3989 1.94648 -59.458 15.4961 0.986427 2.47772 10.7381 -5.37381 4.30588 3.41706 -6.28045 -0.952228 
47.934 91.4133 2.22024 -78.6991 33.5823 -99.573 -172.082 4.2281 87.8999 -28.4021 23.4415 -2.56409 61.952 8.5675 14.4632 58.1917 32.036 0.0879872 177.659 4.0503 88.5532 -30.0285 0.817307 -4.78346 79.7432 -6.71129 -2.91436 63.6776 3.15888 3.96199 0.284977 7.0209 -89.5951 12.8293 0.75982 0.718425 1.15837 0.790681 0.684297 -21.3761 0.508769 0.913556 -1.36347 0.508781 0.913564 81.5425 -50.4272 -113.445 20.9384 -16.2031 7.85408 -21.1423 -0.992163 -81.084 -26.3543 -2.00651 4.46712 -103.595 -44.5599 56.4626 -23.5039 -1.62554 3.80106 14.1457 2.89211 -66.2497 16.4074 1.36396 4.40873 10.8176 -5.43581 3.43682 4.3849 -6.13443 -0.761577 
46.2415 91.4759 2.41073 -78.0494 35.2455 -98.8719 -172.38 1.67714 87.9686 -25.033 23.3954 -2.20871 61.7562 7.61968 14.511 59.7899 32.3906 -2.91794 178.458 11.1692 88.4645 -42.3807 -3.94665 -4.85171 72.3807 -4.90561 -2.47603 67.1328 1.28204 -3.98726 0.198426 7.06371 -89.7104 12.7456 0.532599 0.51554 1.07471 0.554785 0.491583 -21.4601 0.353042 0.651764 -1.44743 0.353047 0.651764 82.5457 -51.022 -111.746 22.2587 -17.4903 9.08495 -22.0062 -3.14561 -77.3916 -24.5926 -1.72186 3.83588 -102.715 -44.1214 57.5842 -24.8988 -2.78921 4.14512 17.2585 1.98739 -74.6042 17.4036 1.87595 6.89558 12.1891 -4.38747 2.09752 3.93225 -4.75907 0.22218 
43.936 92.0027 1.92867 -76.7626 35.5974 -98.4216 -172.584 -0.597544 88.1927 -20.333 20.7996 -1.7209 60.6943 5.17438 12.2808 58.1812 32.5794 1.35035 178.127 19.6765 89.4517 -54.0348 -0.544885 -3.52247 71.5794 -5.06312 -2.59662 60.2409 1.36675 -2.92775 -0.173065 7.15732 -89.8846 12.5593 -0.288791 0.263849 0.888368 -0.276899 0.276292 -21.6468 -0.354739 0.164861 -1.63413 -0.354718 0.164856 82.491 -51.4975 -111.66 23.5802 -17.6633 10.9645 -22.089 -6.50742 -72.5911 -21.6391 -1.74355 5.05249 -102.753 -43.3683 57.1829 -25.5224 -5.07542 4.57158 17.48 0.587781 -80.2476 19.5859 2.11675 6.95091 14.3873 -2.35947 2.27206 3.25676 -2.869 0.232644 
41.5363 92.5454 0.742517 -74.7325 35.0763 -98.7663 -173.082 -2.93237 88.7194 -14.6155 21.2136 -1.03285 58.4837 3.83758 11.9037 54.0826 32.6457 12.3709 176.775 28.7361 90.8423 -61.7853 0.255215 -1.69273 69.2374 -4.34582 -2.31925 58.8597 1.15584 -3.4907 -0.558258 7.31606 -89.9351 12.2434 -1.07875 0.250418 0.572899 -1.06667 0.297655 -21.9659 -1.10413 -0.0854063 -1.95322 -1.10413 -0.0854095 81.649 -52.5689 -112.509 24.3028 -16.1216 13.2331 -17.1587 -9.18821 -64.9892 -21.0738 -1.50227 3.83805 -103.145 -41.7573 55.8253 -23.8709 -7.07766 3.6039 18.5089 0.438971 -83.5644 20.5683 2.27058 7.23206 16.021 -1.00437 0.379501 4.04644 -1.01593 0.888197 
39.228 92.0023 -0.442041 -72.8702 34.3324 -99.213 -173.29 -5.29379 88.9336 -9.92965 20.5408 -0.482787 57.6321 3.93969 10.4654 53.8888 31.7474 10.9119 174.816 38.1488 93.0496 -67.4562 -1.11926 -0.222996 67.6006 -3.75746 -2.06478 59.3794 1.49108 -1.95269 -0.877076 7.5573 -89.9278 11.7629 -1.7104 0.324631 0.0929796 -1.69445 0.399612 -22.4512 -1.72887 -0.204579 -2.43853 -1.72885 -0.204575 79.8289 -55.2799 -114.126 22.4785 -15.3858 15.8839 -10.5591 -9.11273 -56.7893 -18.8489 -1.20933 2.70568 -102.695 -39.9319 55.6365 -21.4123 -9.69979 1.86519 19.8364 -0.382872 -88.7103 21.7332 2.46511 7.55753 16.5574 -0.300752 -2.15713 6.13173 0.423963 1.29774 
37.0924 90.3202 -1.52199 -71.4121 34.5345 -99.9704 -173.1 -7.16391 88.3287 -8.12504 19.8118 -0.7142 58.8494 6.86239 13.1033 56.2033 30.9054 2.48471 172.621 46.9856 95.7389 -70.4636 -2.36182 0.533553 65.8863 -3.12413 -1.75313 60.5557 1.9003 -0.301039 -1.05235 7.9018 -89.9001 11.0752 -2.04821 0.397332 -0.594168 -2.02874 0.48713 -23.1423 -2.0729 -0.236884 -3.12961 -2.07291 -0.236881 77.6372 -56.7429 -116.612 20.8752 -16.3102 20.73 -8.51793 -9.76411 -55.1928 -19.9385 -1.55348 4.37697 -101.227 -38.1091 57.0815 -19.6078 -13.6268 -1.1787 21.0478 -1.64337 -94.94 20.601 2.44244 8.06107 16.3414 -0.0897844 -3.94136 9.63345 1.27324 2.30208 
34.39 88.0096 -3.28033 -71.1165 34.4762 -100.681 -172.626 -9.6086 87.9496 -8.10799 19.8096 -0.966183 59.9655 8.5974 14.098 59.5014 32.9562 -0.934911 170.078 52.4774 97.8808 -71.3815 -3.36134 1.22732 64.7311 -2.53767 -1.42526 64.9814 2.67963 1.52392 -1.27616 8.37827 -89.8974 10.1229 -2.49631 0.411927 -1.54571 -2.47577 0.52146 -24.0999 -2.50465 -0.35785 -4.08722 -2.50464 -0.357848 77.5931 -55.8342 -117.025 22.6586 -16.9548 27.3041 -9.9257 -8.11056 -60.5319 -21.7003 -1.74435 4.68975 -98.7385 -36.1692 60.245 -19.2656 -16.0102 -4.75104 24.0289 -1.65251 -98.4964 21.7499 3.07935 10.2797 16.3277 1.00683 -3.27822 12.657 2.15405 1.92905 
29.6353 85.9038 -6.19609 -70.2116 32.1192 -100.538 -171.527 -11.952 90.1343 -7.75762 26.0497 -0.994252 59.3135 6.88383 12.5305 61.8357 35.552 -0.519503 167.02 52.6997 99.4801 -70.7737 -0.434361 2.53941 63.6134 -2.28543 -1.32429 56.0459 2.54145 4.83299 -1.59523 8.66801 -90.1704 9.5403 -3.25741 -0.0898055 -2.12656 -3.2582 0.0537856 -24.6919 -3.07969 -1.06557 -4.67927 -3.07969 -1.06558 79.3485 -53.6739 -115.403 26.8133 -16.2163 33.3514 -9.27073 -5.26128 -65.7957 -22.7859 -1.45918 2.64028 -97.4606 -33.8942 61.3539 -20.7535 -15.756 -3.76542 23.445 -2.42539 -97.8286 21.4882 3.15652 10.8884 15.3519 1.79271 -3.16254 15.0523 3.08884 3.09962 
23.4007 83.7913 -10.4984 -67.0704 30.6302 -102.88 -173.172 -10.1121 90.1701 -12.8379 27.3143 0.160929 54.1105 -1.10059 4.15828 65.3293 41.2612 3.40917 168.384 48.3989 98.8823 -71.2783 3.228 2.66765 76.0649 -6.93887 -3.26834 53.4824 2.47476 6.10993 -1.75818 8.72662 -90.3934 9.41508 -3.68262 -0.504727 -2.25068 -3.70124 -0.341952 -24.8214 -3.36049 -1.58934 -4.80877 -3.36049 -1.58934 79.9559 -53.8333 -114.48 27.4835 -16.5587 35.155 -10.2118 -3.77285 -70.4856 -23.9561 -1.48596 2.37733 -96.9314 -33.817 62.2391 -25.029 -10.454 -1.03274 17.6713 -0.594635 -89.8972 22.0122 2.07498 5.6279 15.8221 1.96048 -3.89639 16.4242 3.92013 5.47247 
17.3022 82.4301 -14.8221 -63.0698 31.2317 -106.143 -174.801 0.914374 90.2784 -32.2486 26.5492 -0.152805 46.1574 -8.36041 0.834959 54.203 30.8762 8.07093 171.692 44.8365 98.4734 -69.9108 10.939 2.04243 83.8296 -8.75952 -3.4653 56.7717 3.11528 7.48164 -1.41002 8.75751 -90.489 9.3492 -3.03126 -0.745213 -2.31838 -3.06113 -0.61097 -24.8746 -2.66712 -1.62231 -4.86194 -2.66711 -1.62231 78.3342 -54.5768 -116.487 26.5473 -13.6921 32.6451 -10.4325 -0.582776 -75.1682 -25.872 -1.47861 1.72476 -98.7954 -37.2329 60.6402 -28.0328 -0.614236 1.4975 6.80325 0.564826 -72.4552 28.6379 1.95643 2.9562 19.766 1.2736 -2.08467 14.4008 2.76258 5.69742 
10.5824 82.5325 -19.4011 -60.9767 34.6979 -107.152 -172.848 18.9595 89.4102 -60.8776 15.2858 -0.806343 47.8068 -6.86119 2.99854 42.9606 16.7951 6.19834 175.324 37.3153 98.2325 -64.7189 9.60951 0.443723 85.2818 -9.58238 -3.66684 58.779 2.94377 5.33699 -0.629719 8.89204 -90.3749 9.08632 -1.42362 -0.639936 -2.58398 -1.45041 -0.576654 -25.1224 -1.1655 -1.03823 -5.1097 -1.16549 -1.03824 80.3864 -51.5807 -114.705 31.4876 -13.881 26.0964 -18.5103 -0.26503 -89.4325 -26.3933 -1.74524 3.06363 -100.615 -40.7275 59.2888 -33.2837 4.16816 8.6753 2.00018 -1.82729 -59.6617 35.4192 2.55173 3.33823 22.7328 0.254301 0.877849 11.6303 0.611154 4.8755 
